<svg xmlns="http://www.w3.org/2000/svg" width="800" height="800" fill="none" viewBox="0 0 24 24"><path d="M12.1657 2.1442c.7071.356.8343 1.129.8343 1.6004v16.5115c0 .4725-.1283 1.2437-.8344 1.5993-.7496.3777-1.4481-.0473-1.8033-.3663L4.95 16.6248H3c-1.1046 0-2-.8955-2-2V9.4372c0-1.1046.8954-2 2-2h1.9466l5.4157-4.9256c.354-.318 1.0528-.7452 1.8034-.3674ZM16.1185 7.7308l.2396.0716c1.767.5283 2.8919 2.299 2.8919 4.1976 0 1.8987-1.1249 3.6693-2.8919 4.1976l-.2396.0716c-.5291.1582-1.0863-.1425-1.2445-.6716l-.1432-.4791c-.1582-.5291.1425-1.0863.6716-1.2445l.2396-.0716c.5332-.1594 1.108-.8143 1.108-1.8024 0-.988-.5748-1.6429-1.108-1.8024l-.2396-.0716c-.5291-.1582-.8298-.7154-.6716-1.2445l.1432-.479c.1582-.5292.7154-.83 1.2445-.6717Z"/></svg>